<mxfile host="app.diagrams.net" modified="2020-06-18T15:46:52.643Z" agent="5.0 (Macintosh; Intel Mac OS X 10_15_5) AppleWebKit/537.36 (KHTML, like Gecko) Chrome/83.0.4103.97 Safari/537.36" etag="u-A8t0wAz-cHzNdKnZca" version="13.2.6" type="github">
  <diagram id="C5RBs43oDa-KdzZeNtuy" name="Page-1">
    <mxGraphModel dx="1892" dy="2229" grid="1" gridSize="10" guides="1" tooltips="1" connect="1" arrows="1" fold="1" page="1" pageScale="1" pageWidth="827" pageHeight="1169" math="0" shadow="0">
      <root>
        <mxCell id="WIyWlLk6GJQsqaUBKTNV-0" />
        <mxCell id="WIyWlLk6GJQsqaUBKTNV-1" parent="WIyWlLk6GJQsqaUBKTNV-0" />
        <mxCell id="riIvtF9i5uz6ZwIqVuNb-0" value="&lt;font style=&quot;font-size: 20px&quot;&gt;CLIENT&lt;/font&gt;" style="shape=umlActor;verticalLabelPosition=bottom;labelBackgroundColor=#ffffff;verticalAlign=top;html=1;outlineConnect=0;fillColor=#cce5ff;strokeColor=#36393d;aspect=fixed;" vertex="1" parent="WIyWlLk6GJQsqaUBKTNV-1">
          <mxGeometry x="480" y="-80" width="50" height="100" as="geometry" />
        </mxCell>
        <mxCell id="riIvtF9i5uz6ZwIqVuNb-1" value="&lt;font style=&quot;font-size: 19px&quot;&gt;MANAGER&lt;/font&gt;" style="shape=umlActor;verticalLabelPosition=bottom;labelBackgroundColor=#ffffff;verticalAlign=top;html=1;outlineConnect=0;fillColor=#fff2cc;strokeColor=#d6b656;aspect=fixed;" vertex="1" parent="WIyWlLk6GJQsqaUBKTNV-1">
          <mxGeometry x="60" y="220" width="50" height="100" as="geometry" />
        </mxCell>
        <mxCell id="riIvtF9i5uz6ZwIqVuNb-2" value="&lt;i style=&quot;font-size: 15px&quot;&gt;Utilisateur&lt;br&gt;Prise/Gestion de commande&lt;/i&gt;" style="shape=umlActor;verticalLabelPosition=bottom;labelBackgroundColor=#ffffff;verticalAlign=top;html=1;outlineConnect=0;gradientDirection=north;fillColor=#bac8d3;strokeColor=#23445d;gradientColor=#B5739D;aspect=fixed;" vertex="1" parent="WIyWlLk6GJQsqaUBKTNV-1">
          <mxGeometry x="770" y="20" width="50" height="100" as="geometry" />
        </mxCell>
        <mxCell id="riIvtF9i5uz6ZwIqVuNb-3" value="&lt;font style=&quot;font-size: 20px&quot;&gt;HÔTE DE CAISSE&lt;/font&gt;" style="shape=umlActor;verticalLabelPosition=bottom;labelBackgroundColor=#ffffff;verticalAlign=top;html=1;outlineConnect=0;fillColor=#d0cee2;strokeColor=#56517e;aspect=fixed;" vertex="1" parent="WIyWlLk6GJQsqaUBKTNV-1">
          <mxGeometry x="480" y="80" width="50" height="100" as="geometry" />
        </mxCell>
        <mxCell id="riIvtF9i5uz6ZwIqVuNb-5" value="&lt;font style=&quot;font-size: 20px&quot;&gt;LIVREUR&lt;/font&gt;" style="shape=umlActor;verticalLabelPosition=bottom;labelBackgroundColor=#ffffff;verticalAlign=top;html=1;outlineConnect=0;fillColor=#d5e8d4;strokeColor=#82b366;aspect=fixed;" vertex="1" parent="WIyWlLk6GJQsqaUBKTNV-1">
          <mxGeometry x="480" y="340" width="50" height="100" as="geometry" />
        </mxCell>
        <mxCell id="riIvtF9i5uz6ZwIqVuNb-14" value="&lt;font style=&quot;font-size: 20px&quot;&gt;PIZZAIOLO&lt;/font&gt;" style="shape=umlActor;verticalLabelPosition=bottom;labelBackgroundColor=#ffffff;verticalAlign=top;html=1;outlineConnect=0;fillColor=#ffe6cc;strokeColor=#d79b00;aspect=fixed;" vertex="1" parent="WIyWlLk6GJQsqaUBKTNV-1">
          <mxGeometry x="480" y="510" width="50" height="100" as="geometry" />
        </mxCell>
        <mxCell id="riIvtF9i5uz6ZwIqVuNb-15" value="&lt;font style=&quot;font-size: 20px&quot;&gt;Système bancaire&lt;/font&gt;" style="shape=umlActor;verticalLabelPosition=bottom;labelBackgroundColor=#ffffff;verticalAlign=top;html=1;outlineConnect=0;" vertex="1" parent="WIyWlLk6GJQsqaUBKTNV-1">
          <mxGeometry x="1800" y="200" width="40" height="80" as="geometry" />
        </mxCell>
        <mxCell id="riIvtF9i5uz6ZwIqVuNb-16" value="" style="endArrow=classic;html=1;exitX=0.767;exitY=-0.017;exitDx=0;exitDy=0;exitPerimeter=0;fillColor=#fad7ac;strokeColor=#b46504;" edge="1" parent="WIyWlLk6GJQsqaUBKTNV-1" source="riIvtF9i5uz6ZwIqVuNb-1" target="riIvtF9i5uz6ZwIqVuNb-0">
          <mxGeometry width="50" height="50" relative="1" as="geometry">
            <mxPoint x="450" y="340" as="sourcePoint" />
            <mxPoint x="180" y="100" as="targetPoint" />
          </mxGeometry>
        </mxCell>
        <mxCell id="riIvtF9i5uz6ZwIqVuNb-17" value="" style="endArrow=classic;html=1;fillColor=#fad7ac;strokeColor=#b46504;" edge="1" parent="WIyWlLk6GJQsqaUBKTNV-1" target="riIvtF9i5uz6ZwIqVuNb-3">
          <mxGeometry width="50" height="50" relative="1" as="geometry">
            <mxPoint x="100" y="240" as="sourcePoint" />
            <mxPoint x="500" y="290" as="targetPoint" />
          </mxGeometry>
        </mxCell>
        <mxCell id="riIvtF9i5uz6ZwIqVuNb-18" value="" style="endArrow=classic;html=1;fillColor=#fad7ac;strokeColor=#b46504;" edge="1" parent="WIyWlLk6GJQsqaUBKTNV-1" target="riIvtF9i5uz6ZwIqVuNb-5">
          <mxGeometry width="50" height="50" relative="1" as="geometry">
            <mxPoint x="110" y="300" as="sourcePoint" />
            <mxPoint x="190" y="390" as="targetPoint" />
          </mxGeometry>
        </mxCell>
        <mxCell id="riIvtF9i5uz6ZwIqVuNb-19" value="" style="endArrow=classic;html=1;fillColor=#fad7ac;strokeColor=#b46504;" edge="1" parent="WIyWlLk6GJQsqaUBKTNV-1">
          <mxGeometry width="50" height="50" relative="1" as="geometry">
            <mxPoint x="120" y="330" as="sourcePoint" />
            <mxPoint x="470" y="550" as="targetPoint" />
          </mxGeometry>
        </mxCell>
        <mxCell id="riIvtF9i5uz6ZwIqVuNb-27" value="" style="endArrow=classic;html=1;entryX=0;entryY=0.3333333333333333;entryDx=0;entryDy=0;entryPerimeter=0;fillColor=#dae8fc;strokeColor=#6c8ebf;" edge="1" parent="WIyWlLk6GJQsqaUBKTNV-1" target="riIvtF9i5uz6ZwIqVuNb-2">
          <mxGeometry width="50" height="50" relative="1" as="geometry">
            <mxPoint x="510" y="-40" as="sourcePoint" />
            <mxPoint x="760" y="100" as="targetPoint" />
          </mxGeometry>
        </mxCell>
        <mxCell id="riIvtF9i5uz6ZwIqVuNb-28" value="" style="endArrow=classic;html=1;fillColor=#e1d5e7;strokeColor=#9673a6;" edge="1" parent="WIyWlLk6GJQsqaUBKTNV-1" source="riIvtF9i5uz6ZwIqVuNb-3" target="riIvtF9i5uz6ZwIqVuNb-2">
          <mxGeometry width="50" height="50" relative="1" as="geometry">
            <mxPoint x="630" y="190" as="sourcePoint" />
            <mxPoint x="750" y="120" as="targetPoint" />
          </mxGeometry>
        </mxCell>
      </root>
    </mxGraphModel>
  </diagram>
</mxfile>
